<svg xmlns="http://www.w3.org/2000/svg" viewBox="0 0 240 160" role="img" aria-labelledby="title desc">
  <title id="title">PANN CARBON Logo</title>
  <desc id="desc">Infinity loop gradient with green leaf and blue leaf motif</desc>
  <defs>
    <linearGradient id="loopGradient" x1="0" x2="1" y1="0.5" y2="0.5">
      <stop offset="0%" stop-color="#32d0c3" />
      <stop offset="50%" stop-color="#63b0ff" />
      <stop offset="100%" stop-color="#a0e76a" />
    </linearGradient>
    <linearGradient id="leafGradient" x1="0" x2="0" y1="0" y2="1">
      <stop offset="0%" stop-color="#8ae382" />
      <stop offset="100%" stop-color="#3cb878" />
    </linearGradient>
    <linearGradient id="leafGradient2" x1="0" x2="0" y1="0" y2="1">
      <stop offset="0%" stop-color="#6ec1ff" />
      <stop offset="100%" stop-color="#2f9fe8" />
    </linearGradient>
  </defs>
  <path
    d="M38 80c0-31 25.1-56 56-56 18 0 33.7 9 44 23 10.3-14 26-23 44-23 30.9 0 56 25 56 56s-25.1 56-56 56c-18 0-33.7-9-44-23-10.3 14-26 23-44 23-30.9 0-56-25-56-56Z
       M82 80c0 14 11 25 25 25 9.7 0 18.5-5.5 24.4-14.5-5.9-9-14.7-14.5-24.4-14.5-14 0-25 11-25 24Zm76-0.1c0 13.9 11 24.9 24.9 24.9 13.9 0 24.9-11 24.9-24.9s-11-24.9-24.9-24.9c-13.9 0-24.9 11-24.9 24.9Z"
    fill="url(#loopGradient)"
    opacity="0.95"
  />
  <path
    d="M164 30c9 1 18.4 4.2 26.6 11.6 10 9 16.9 22 18.4 36.4-11-10.7-22.8-16-36.6-16.8 5.2-7.4 6.7-16.9 5.6-31.2Z"
    fill="url(#leafGradient2)"
  />
  <path
    d="M162.7 30c-5.6 11.1-7.7 22.4-3.8 36 2.2 7.6 6.4 15.7 11.6 22-15.4-7.5-26.2-19.9-30.5-37.7-2.5-9.9-1.7-18.6 0.9-27.5 6.6 1.6 13.2 3.9 21.8 7.2Z"
    fill="url(#leafGradient)"
  />
</svg>

